<?xml version="1.0" encoding="UTF-8" standalone="no"?><svg xmlns="http://www.w3.org/2000/svg" xmlns:xlink="http://www.w3.org/1999/xlink" contentStyleType="text/css" height="271px" preserveAspectRatio="none" style="width:749px;height:271px;background:#FFFFFF;" version="1.1" viewBox="0 0 749 271" width="749px" zoomAndPan="magnify"><defs/><g><!--MD5=[18c892725d5bc9e1f801d9a32166c545]
class ListStrategy--><g id="elem_ListStrategy"><rect codeLine="13" fill="#F1F1F1" height="113.9531" id="ListStrategy" rx="2.5" ry="2.5" style="stroke:#181818;stroke-width:0.5;" width="384" x="358" y="22.5"/><ellipse cx="506.25" cy="38.5" fill="#ADD1B2" rx="11" ry="11" style="stroke:#181818;stroke-width:1.0;"/><path d="M508.7231,44.6431 Q508.1421,44.9419 507.5029,45.0913 Q506.8638,45.2407 506.1582,45.2407 Q503.6514,45.2407 502.3315,43.5889 Q501.0117,41.937 501.0117,38.8159 Q501.0117,35.6865 502.3315,34.0347 Q503.6514,32.3828 506.1582,32.3828 Q506.8638,32.3828 507.5112,32.5322 Q508.1587,32.6816 508.7231,32.9805 L508.7231,35.7031 Q508.0923,35.1221 507.4988,34.8523 Q506.9053,34.5825 506.2744,34.5825 Q504.9297,34.5825 504.2449,35.6492 Q503.5601,36.7158 503.5601,38.8159 Q503.5601,40.9077 504.2449,41.9744 Q504.9297,43.041 506.2744,43.041 Q506.9053,43.041 507.4988,42.7712 Q508.0923,42.5015 508.7231,41.9204 Z " fill="#000000"/><text fill="#000000" font-family="sans-serif" font-size="14" lengthAdjust="spacing" textLength="79" x="526.75" y="43.791">ListStrategy</text><line style="stroke:#181818;stroke-width:0.5;" x1="359" x2="741" y1="54.5" y2="54.5"/><line style="stroke:#181818;stroke-width:0.5;" x1="359" x2="741" y1="62.5" y2="62.5"/><ellipse cx="369" cy="76.2441" fill="#84BE84" rx="3" ry="3" style="stroke:#038048;stroke-width:1.0;"/><text fill="#000000" font-family="sans-serif" font-size="14" lengthAdjust="spacing" textLength="165" x="378" y="80.0352">~ListStrategy() = default</text><ellipse cx="369" cy="92.7324" fill="#84BE84" rx="3" ry="3" style="stroke:#038048;stroke-width:1.0;"/><text fill="#000000" font-family="sans-serif" font-size="14" lengthAdjust="spacing" textLength="358" x="378" y="96.5234">void add_list_item(ostringstream&amp; oss, string&amp; item)</text><ellipse cx="369" cy="109.2207" fill="#84BE84" rx="3" ry="3" style="stroke:#038048;stroke-width:1.0;"/><text fill="#000000" font-family="sans-serif" font-size="14" lengthAdjust="spacing" textLength="207" x="378" y="113.0117">void start(ostringstream&amp; oss)</text><ellipse cx="369" cy="125.709" fill="#84BE84" rx="3" ry="3" style="stroke:#038048;stroke-width:1.0;"/><text fill="#000000" font-family="sans-serif" font-size="14" lengthAdjust="spacing" textLength="202" x="378" y="129.5">void end(ostringstream&amp; oss)</text></g><!--MD5=[a9937062fc98f8a910a25d015132f6ec]
class MarkdownListStrategy--><g id="elem_MarkdownListStrategy"><rect codeLine="19" fill="#F1F1F1" height="48" id="MarkdownListStrategy" rx="2.5" ry="2.5" style="stroke:#181818;stroke-width:0.5;" width="183" x="357.5" y="216"/><ellipse cx="372.5" cy="232" fill="#ADD1B2" rx="11" ry="11" style="stroke:#181818;stroke-width:1.0;"/><path d="M374.9731,238.1431 Q374.3921,238.4419 373.7529,238.5913 Q373.1138,238.7407 372.4082,238.7407 Q369.9014,238.7407 368.5815,237.0889 Q367.2617,235.437 367.2617,232.3159 Q367.2617,229.1865 368.5815,227.5347 Q369.9014,225.8828 372.4082,225.8828 Q373.1138,225.8828 373.7612,226.0322 Q374.4087,226.1816 374.9731,226.4805 L374.9731,229.2031 Q374.3423,228.6221 373.7488,228.3523 Q373.1553,228.0825 372.5244,228.0825 Q371.1797,228.0825 370.4949,229.1492 Q369.8101,230.2158 369.8101,232.3159 Q369.8101,234.4077 370.4949,235.4744 Q371.1797,236.541 372.5244,236.541 Q373.1553,236.541 373.7488,236.2712 Q374.3423,236.0015 374.9731,235.4204 Z " fill="#000000"/><text fill="#000000" font-family="sans-serif" font-size="14" lengthAdjust="spacing" textLength="151" x="386.5" y="237.291">MarkdownListStrategy</text><line style="stroke:#181818;stroke-width:0.5;" x1="358.5" x2="539.5" y1="248" y2="248"/><line style="stroke:#181818;stroke-width:0.5;" x1="358.5" x2="539.5" y1="256" y2="256"/></g><!--MD5=[26f6f01f0ba4fece830a026f85093547]
class HTMLListStrategy--><g id="elem_HTMLListStrategy"><rect codeLine="21" fill="#F1F1F1" height="48" id="HTMLListStrategy" rx="2.5" ry="2.5" style="stroke:#181818;stroke-width:0.5;" width="149" x="575.5" y="216"/><ellipse cx="590.5" cy="232" fill="#ADD1B2" rx="11" ry="11" style="stroke:#181818;stroke-width:1.0;"/><path d="M592.9731,238.1431 Q592.3921,238.4419 591.7529,238.5913 Q591.1138,238.7407 590.4082,238.7407 Q587.9014,238.7407 586.5815,237.0889 Q585.2617,235.437 585.2617,232.3159 Q585.2617,229.1865 586.5815,227.5347 Q587.9014,225.8828 590.4082,225.8828 Q591.1138,225.8828 591.7612,226.0322 Q592.4087,226.1816 592.9731,226.4805 L592.9731,229.2031 Q592.3423,228.6221 591.7488,228.3523 Q591.1553,228.0825 590.5244,228.0825 Q589.1797,228.0825 588.4949,229.1492 Q587.8101,230.2158 587.8101,232.3159 Q587.8101,234.4077 588.4949,235.4744 Q589.1797,236.541 590.5244,236.541 Q591.1553,236.541 591.7488,236.2712 Q592.3423,236.0015 592.9731,235.4204 Z " fill="#000000"/><text fill="#000000" font-family="sans-serif" font-size="14" lengthAdjust="spacing" textLength="117" x="604.5" y="237.291">HTMLListStrategy</text><line style="stroke:#181818;stroke-width:0.5;" x1="576.5" x2="723.5" y1="248" y2="248"/><line style="stroke:#181818;stroke-width:0.5;" x1="576.5" x2="723.5" y1="256" y2="256"/></g><!--MD5=[963870d332702dcac295122ff418ea8b]
class TextProcessor--><g id="elem_TextProcessor"><rect codeLine="5" fill="#F1F1F1" height="146.9297" id="TextProcessor" rx="2.5" ry="2.5" style="stroke:#181818;stroke-width:0.5;" width="308" x="7" y="7"/><ellipse cx="107.75" cy="23" fill="#ADD1B2" rx="11" ry="11" style="stroke:#181818;stroke-width:1.0;"/><path d="M110.2231,29.1431 Q109.6421,29.4419 109.0029,29.5913 Q108.3638,29.7407 107.6582,29.7407 Q105.1514,29.7407 103.8315,28.0889 Q102.5117,26.437 102.5117,23.3159 Q102.5117,20.1865 103.8315,18.5347 Q105.1514,16.8828 107.6582,16.8828 Q108.3638,16.8828 109.0112,17.0322 Q109.6587,17.1816 110.2231,17.4805 L110.2231,20.2031 Q109.5923,19.6221 108.9988,19.3523 Q108.4053,19.0825 107.7744,19.0825 Q106.4297,19.0825 105.7449,20.1492 Q105.0601,21.2158 105.0601,23.3159 Q105.0601,25.4077 105.7449,26.4744 Q106.4297,27.541 107.7744,27.541 Q108.4053,27.541 108.9988,27.2712 Q109.5923,27.0015 110.2231,26.4204 Z " fill="#000000"/><text fill="#000000" font-family="sans-serif" font-size="14" lengthAdjust="spacing" textLength="98" x="128.25" y="28.291">TextProcessor</text><line style="stroke:#181818;stroke-width:0.5;" x1="8" x2="314" y1="39" y2="39"/><rect fill="none" height="6" style="stroke:#C82930;stroke-width:1.0;" width="6" x="15" y="49.7441"/><text fill="#000000" font-family="sans-serif" font-size="14" lengthAdjust="spacing" textLength="187" x="27" y="56.5352">ostringstream            m_oss</text><rect fill="none" height="6" style="stroke:#C82930;stroke-width:1.0;" width="6" x="15" y="66.2324"/><text fill="#000000" font-family="sans-serif" font-size="14" lengthAdjust="spacing" textLength="282" x="27" y="73.0234">unique_ptr&lt;ListStrategy&gt; m_list_strategy</text><line style="stroke:#181818;stroke-width:0.5;" x1="8" x2="314" y1="79.9766" y2="79.9766"/><ellipse cx="18" cy="93.7207" fill="#84BE84" rx="3" ry="3" style="stroke:#038048;stroke-width:1.0;"/><text fill="#000000" font-family="sans-serif" font-size="14" lengthAdjust="spacing" textLength="43" x="27" y="97.5117">clear()</text><ellipse cx="18" cy="110.209" fill="#84BE84" rx="3" ry="3" style="stroke:#038048;stroke-width:1.0;"/><text fill="#000000" font-family="sans-serif" font-size="14" lengthAdjust="spacing" textLength="87" x="27" y="114">AppendList()</text><ellipse cx="18" cy="126.6973" fill="#84BE84" rx="3" ry="3" style="stroke:#038048;stroke-width:1.0;"/><text fill="#000000" font-family="sans-serif" font-size="14" lengthAdjust="spacing" textLength="136" x="27" y="130.4883">set_output_format()</text><ellipse cx="18" cy="143.1855" fill="#84BE84" rx="3" ry="3" style="stroke:#038048;stroke-width:1.0;"/><text fill="#000000" font-family="sans-serif" font-size="14" lengthAdjust="spacing" textLength="28" x="27" y="146.9766">str()</text></g><!--MD5=[7b014a05e78b85ebbbb6ca88b5c86092]
reverse link ListStrategy to MarkdownListStrategy--><g id="link_ListStrategy_MarkdownListStrategy"><path codeLine="2" d="M502.74,154.66 C488.7,176.7 474.32,199.27 463.97,215.51 " fill="none" id="ListStrategy-backto-MarkdownListStrategy" style="stroke:#181818;stroke-width:1.0;"/><polygon fill="none" points="496.64,151.21,513.29,138.1,508.45,158.73,496.64,151.21" style="stroke:#181818;stroke-width:1.0;"/></g><!--MD5=[8dc1b3a3383dd45b00964822b70fe179]
reverse link ListStrategy to HTMLListStrategy--><g id="link_ListStrategy_HTMLListStrategy"><path codeLine="3" d="M597,154.99 C610.84,176.93 624.98,199.35 635.18,215.51 " fill="none" id="ListStrategy-backto-HTMLListStrategy" style="stroke:#181818;stroke-width:1.0;"/><polygon fill="none" points="591.1,158.76,586.35,138.11,602.94,151.29,591.1,158.76" style="stroke:#181818;stroke-width:1.0;"/></g><!--MD5=[49837a84271db96e7982db01e8fdce39]
reverse link TextProcessor to ListStrategy--><g id="link_TextProcessor_ListStrategy"><path codeLine="24" d="M316,67.5 C329.57,69.72 343.58,71.86 357.68,73.86 " fill="none" id="TextProcessor-backto-ListStrategy" style="stroke:#181818;stroke-width:1.0;"/><polygon fill="none" points="316,67.5,321.2755,72.4162,327.8426,69.4374,322.5671,64.5212,316,67.5" style="stroke:#181818;stroke-width:1.0;"/></g><!--MD5=[b200e2b6ed7c9b108bd5f27834d44950]
@startuml strategy
    abstract class ListStrategy 
    ListStrategy <|- - MarkdownListStrategy
    ListStrategy <|- - HTMLListStrategy

    class TextProcessor {
       +clear()
       +AppendList()
       +set_output_format()
       +str()
       -ostringstream            m_oss
       -unique_ptr<ListStrategy> m_list_strategy
    }
    class ListStrategy {
        +~ListStrategy() = default
        +void add_list_item(ostringstream& oss, string& item)
        +void start(ostringstream& oss)
        +void end(ostringstream& oss)
    }
    class MarkdownListStrategy {
    }
    class HTMLListStrategy {
    }

    TextProcessor::m_list_strategy o- ListStrategy 
@enduml

PlantUML version 1.2022.13(Sat Nov 19 07:22:17 CST 2022)
(GPL source distribution)
Java Runtime: OpenJDK Runtime Environment
JVM: OpenJDK 64-Bit Server VM
Default Encoding: UTF-8
Language: en
Country: MX
--></g></svg>